<?xml version="1.0" encoding="UTF-8" standalone="no"?>
<!DOCTYPE svg PUBLIC "-//W3C//DTD SVG 1.1//EN"
 "http://www.w3.org/Graphics/SVG/1.1/DTD/svg11.dtd">
<!-- Generated by graphviz version 2.43.0 (0)
 -->
<!-- Title: G Pages: 1 -->
<svg width="1378pt" height="718pt"
 viewBox="0.00 0.00 1378.00 718.00" xmlns="http://www.w3.org/2000/svg" xmlns:xlink="http://www.w3.org/1999/xlink">
<g id="graph0" class="graph" transform="scale(1 1) rotate(0) translate(4 714)">
<title>G</title>
<polygon fill="white" stroke="transparent" points="-4,4 -4,-714 1374,-714 1374,4 -4,4"/>
<g id="clust1" class="cluster">
<title>cluster_root</title>
<g id="a_clust1"><a xlink:title="eventq_index=0&#10;full_system=false&#10;sim_quantum=0&#10;time_sync_enable=false&#10;time_sync_period=100000000000&#10;time_sync_spin_threshold=100000000">
<path fill="#bab6ae" stroke="#000000" d="M20,-8C20,-8 1350,-8 1350,-8 1356,-8 1362,-14 1362,-20 1362,-20 1362,-690 1362,-690 1362,-696 1356,-702 1350,-702 1350,-702 20,-702 20,-702 14,-702 8,-696 8,-690 8,-690 8,-20 8,-20 8,-14 14,-8 20,-8"/>
<text text-anchor="middle" x="685" y="-686.8" font-family="Arial" font-size="14.00" fill="#000000">root </text>
<text text-anchor="middle" x="685" y="-671.8" font-family="Arial" font-size="14.00" fill="#000000">: Root</text>
</a>
</g>
</g>
<g id="clust2" class="cluster">
<title>cluster_system</title>
<g id="a_clust2"><a xlink:title="auto_unlink_shared_backstore=false&#10;cache_line_size=64&#10;eventq_index=0&#10;exit_on_work_items=false&#10;init_param=0&#10;m5ops_base=0&#10;mem_mode=timing&#10;mem_ranges=0:536870912&#10;memories=system.mem_ctrl.dram&#10;mmap_using_noreserve=false&#10;multi_thread=false&#10;&#10;um_work_ids=16&#10;&#13;eadfile=&#10;&#13;edirect_paths=&#10;shadow_rom_ranges=&#10;shared_backstore=&#10;symbolfile=&#10;thermal_components=&#10;thermal_model=Null&#10;work_begin_ckpt_count=0&#10;work_begin_cpu_id_exit=&#45;1&#10;work_begin_exit_count=0&#10;work_cpus_ckpt_count=0&#10;work_end_ckpt_count=0&#10;work_end_exit_count=0&#10;work_item_id=&#45;1&#10;workload=system.workload">
<path fill="#e4e7eb" stroke="#000000" d="M28,-16C28,-16 1342,-16 1342,-16 1348,-16 1354,-22 1354,-28 1354,-28 1354,-644 1354,-644 1354,-650 1348,-656 1342,-656 1342,-656 28,-656 28,-656 22,-656 16,-650 16,-644 16,-644 16,-28 16,-28 16,-22 22,-16 28,-16"/>
<text text-anchor="middle" x="685" y="-640.8" font-family="Arial" font-size="14.00" fill="#000000">system </text>
<text text-anchor="middle" x="685" y="-625.8" font-family="Arial" font-size="14.00" fill="#000000">: System</text>
</a>
</g>
</g>
<g id="clust7" class="cluster">
<title>cluster_system_cpu0</title>
<g id="a_clust7"><a xlink:title="LFSTSize=1024&#10;LQEntries=32&#10;LSQCheckLoads=true&#10;LSQDepCheckShift=4&#10;SQEntries=32&#10;SSITSize=1024&#10;activity=0&#10;backComSize=5&#10;branchPred=system.cpu0.branchPred&#10;cacheLoadPorts=200&#10;cacheStorePorts=200&#10;checker=Null&#10;clk_domain=system.cpu0.clk_domain&#10;commitToDecodeDelay=1&#10;commitToFetchDelay=1&#10;commitToIEWDelay=1&#10;commitToRenameDelay=1&#10;commitWidth=8&#10;cpu_id=&#45;1&#10;decodeToFetchDelay=1&#10;decodeToRenameDelay=1&#10;decodeWidth=8&#10;decoder=system.cpu0.decoder&#10;dispatchWidth=8&#10;do_checkpoint_insts=true&#10;do_statistics_insts=true&#10;eventq_index=0&#10;fetchBufferSize=64&#10;fetchQueueSize=32&#10;fetchToDecodeDelay=1&#10;fetchTrapLatency=1&#10;fetchWidth=8&#10;forwardComSize=5&#10;fuPool=system.cpu0.fuPool&#10;function_trace=false&#10;function_trace_start=0&#10;iewToCommitDelay=1&#10;iewToDecodeDelay=1&#10;iewToFetchDelay=1&#10;iewToRenameDelay=1&#10;interrupts=system.cpu0.interrupts&#10;isa=system.cpu0.isa&#10;issueToExecuteDelay=1&#10;issueWidth=8&#10;max_insts_all_threads=0&#10;max_insts_any_thread=0&#10;mmu=system.cpu0.mmu&#10;&#10;eedsTSO=true&#10;&#10;umIQEntries=64&#10;&#10;umPhysCCRegs=1280&#10;&#10;umPhysFloatRegs=256&#10;&#10;umPhysIntRegs=256&#10;&#10;umPhysMatRegs=2&#10;&#10;umPhysVecPredRegs=32&#10;&#10;umPhysVecRegs=256&#10;&#10;umROBEntries=192&#10;&#10;umRobs=1&#10;&#10;umThreads=1&#10;power_gating_on_idle=false&#10;power_model=&#10;power_state=system.cpu0.power_state&#10;progress_interval=0&#10;pwr_gating_latency=300&#10;&#13;enameToDecodeDelay=1&#10;&#13;enameToFetchDelay=1&#10;&#13;enameToIEWDelay=2&#10;&#13;enameToROBDelay=1&#10;&#13;enameWidth=8&#10;simpoint_start_insts=&#10;smtCommitPolicy=RoundRobin&#10;smtFetchPolicy=RoundRobin&#10;smtIQPolicy=Partitioned&#10;smtIQThreshold=100&#10;smtLSQPolicy=Partitioned&#10;smtLSQThreshold=100&#10;smtNumFetchingThreads=1&#10;smtROBPolicy=Partitioned&#10;smtROBThreshold=100&#10;socket_id=0&#10;squashWidth=8&#10;store_set_clear_period=250000&#10;switched_out=false&#10;syscallRetryLatency=10000&#10;system=system&#10;tracer=system.cpu0.tracer&#10;trapLatency=13&#10;wbWidth=8&#10;workload=system.cpu0.workload">
<path fill="#bbc6d9" stroke="#000000" d="M36,-24C36,-24 535,-24 535,-24 541,-24 547,-30 547,-36 547,-36 547,-286 547,-286 547,-292 541,-298 535,-298 535,-298 36,-298 36,-298 30,-298 24,-292 24,-286 24,-286 24,-36 24,-36 24,-30 30,-24 36,-24"/>
<text text-anchor="middle" x="285.5" y="-282.8" font-family="Arial" font-size="14.00" fill="#000000">cpu0 </text>
<text text-anchor="middle" x="285.5" y="-267.8" font-family="Arial" font-size="14.00" fill="#000000">: X86O3CPU</text>
</a>
</g>
</g>
<g id="clust84" class="cluster">
<title>cluster_system_cpu0_icache</title>
<g id="a_clust84"><a xlink:title="addr_ranges=0:18446744073709551615&#10;assoc=2&#10;clk_domain=system.cpu0.clk_domain&#10;clusivity=mostly_incl&#10;compressor=Null&#10;data_latency=2&#10;demand_mshr_reserve=1&#10;eventq_index=0&#10;is_read_only=false&#10;max_miss_count=0&#10;move_contractions=true&#10;mshrs=4&#10;power_model=&#10;power_state=system.cpu0.icache.power_state&#10;prefetch_on_access=false&#10;prefetch_on_pf_hit=false&#10;prefetcher=Null&#10;&#13;eplace_expansions=true&#10;&#13;eplacement_policy=system.cpu0.icache.replacement_policy&#10;&#13;esponse_latency=2&#10;sequential_access=false&#10;size=65536&#10;system=system&#10;tag_latency=2&#10;tags=system.cpu0.icache.tags&#10;tgts_per_mshr=20&#10;warmup_percentage=0&#10;write_allocator=Null&#10;write_buffers=8&#10;writeback_clean=false">
<path fill="#bab6ae" stroke="#000000" d="M333,-32C333,-32 495,-32 495,-32 501,-32 507,-38 507,-44 507,-44 507,-110 507,-110 507,-116 501,-122 495,-122 495,-122 333,-122 333,-122 327,-122 321,-116 321,-110 321,-110 321,-44 321,-44 321,-38 327,-32 333,-32"/>
<text text-anchor="middle" x="414" y="-106.8" font-family="Arial" font-size="14.00" fill="#000000">icache </text>
<text text-anchor="middle" x="414" y="-91.8" font-family="Arial" font-size="14.00" fill="#000000">: Cache</text>
</a>
</g>
</g>
<g id="clust90" class="cluster">
<title>cluster_system_cpu0_dcache</title>
<g id="a_clust90"><a xlink:title="addr_ranges=0:18446744073709551615&#10;assoc=2&#10;clk_domain=system.cpu0.clk_domain&#10;clusivity=mostly_incl&#10;compressor=Null&#10;data_latency=2&#10;demand_mshr_reserve=1&#10;eventq_index=0&#10;is_read_only=false&#10;max_miss_count=0&#10;move_contractions=true&#10;mshrs=4&#10;power_model=&#10;power_state=system.cpu0.dcache.power_state&#10;prefetch_on_access=false&#10;prefetch_on_pf_hit=false&#10;prefetcher=Null&#10;&#13;eplace_expansions=true&#10;&#13;eplacement_policy=system.cpu0.dcache.replacement_policy&#10;&#13;esponse_latency=2&#10;sequential_access=false&#10;size=65536&#10;system=system&#10;tag_latency=2&#10;tags=system.cpu0.dcache.tags&#10;tgts_per_mshr=20&#10;warmup_percentage=0&#10;write_allocator=Null&#10;write_buffers=8&#10;writeback_clean=false">
<path fill="#bab6ae" stroke="#000000" d="M77,-32C77,-32 239,-32 239,-32 245,-32 251,-38 251,-44 251,-44 251,-110 251,-110 251,-116 245,-122 239,-122 239,-122 77,-122 77,-122 71,-122 65,-116 65,-110 65,-110 65,-44 65,-44 65,-38 71,-32 77,-32"/>
<text text-anchor="middle" x="158" y="-106.8" font-family="Arial" font-size="14.00" fill="#000000">dcache </text>
<text text-anchor="middle" x="158" y="-91.8" font-family="Arial" font-size="14.00" fill="#000000">: Cache</text>
</a>
</g>
</g>
<g id="clust96" class="cluster">
<title>cluster_system_cpu0_interrupts</title>
<g id="a_clust96"><a xlink:title="clk_domain=system.cpu0.interrupts.clk_domain&#10;eventq_index=0&#10;int_latency=1000&#10;pio_latency=100000&#10;system=system">
<path fill="#bab6ae" stroke="#000000" d="M250,-162C250,-162 527,-162 527,-162 533,-162 539,-168 539,-174 539,-174 539,-240 539,-240 539,-246 533,-252 527,-252 527,-252 250,-252 250,-252 244,-252 238,-246 238,-240 238,-240 238,-174 238,-174 238,-168 244,-162 250,-162"/>
<text text-anchor="middle" x="388.5" y="-236.8" font-family="Arial" font-size="14.00" fill="#000000">interrupts </text>
<text text-anchor="middle" x="388.5" y="-221.8" font-family="Arial" font-size="14.00" fill="#000000">: X86LocalApic</text>
</a>
</g>
</g>
<g id="clust98" class="cluster">
<title>cluster_system_cpu1</title>
<g id="a_clust98"><a xlink:title="LFSTSize=1024&#10;LQEntries=32&#10;LSQCheckLoads=true&#10;LSQDepCheckShift=4&#10;SQEntries=32&#10;SSITSize=1024&#10;activity=0&#10;backComSize=5&#10;branchPred=system.cpu1.branchPred&#10;cacheLoadPorts=200&#10;cacheStorePorts=200&#10;checker=Null&#10;clk_domain=system.cpu1.clk_domain&#10;commitToDecodeDelay=1&#10;commitToFetchDelay=1&#10;commitToIEWDelay=1&#10;commitToRenameDelay=1&#10;commitWidth=8&#10;cpu_id=&#45;1&#10;decodeToFetchDelay=1&#10;decodeToRenameDelay=1&#10;decodeWidth=8&#10;decoder=system.cpu1.decoder&#10;dispatchWidth=8&#10;do_checkpoint_insts=true&#10;do_statistics_insts=true&#10;eventq_index=0&#10;fetchBufferSize=64&#10;fetchQueueSize=32&#10;fetchToDecodeDelay=1&#10;fetchTrapLatency=1&#10;fetchWidth=8&#10;forwardComSize=5&#10;fuPool=system.cpu1.fuPool&#10;function_trace=false&#10;function_trace_start=0&#10;iewToCommitDelay=1&#10;iewToDecodeDelay=1&#10;iewToFetchDelay=1&#10;iewToRenameDelay=1&#10;interrupts=system.cpu1.interrupts&#10;isa=system.cpu1.isa&#10;issueToExecuteDelay=1&#10;issueWidth=8&#10;max_insts_all_threads=0&#10;max_insts_any_thread=0&#10;mmu=system.cpu1.mmu&#10;&#10;eedsTSO=true&#10;&#10;umIQEntries=64&#10;&#10;umPhysCCRegs=1280&#10;&#10;umPhysFloatRegs=256&#10;&#10;umPhysIntRegs=256&#10;&#10;umPhysMatRegs=2&#10;&#10;umPhysVecPredRegs=32&#10;&#10;umPhysVecRegs=256&#10;&#10;umROBEntries=192&#10;&#10;umRobs=1&#10;&#10;umThreads=1&#10;power_gating_on_idle=false&#10;power_model=&#10;power_state=system.cpu1.power_state&#10;progress_interval=0&#10;pwr_gating_latency=300&#10;&#13;enameToDecodeDelay=1&#10;&#13;enameToFetchDelay=1&#10;&#13;enameToIEWDelay=2&#10;&#13;enameToROBDelay=1&#10;&#13;enameWidth=8&#10;simpoint_start_insts=&#10;smtCommitPolicy=RoundRobin&#10;smtFetchPolicy=RoundRobin&#10;smtIQPolicy=Partitioned&#10;smtIQThreshold=100&#10;smtLSQPolicy=Partitioned&#10;smtLSQThreshold=100&#10;smtNumFetchingThreads=1&#10;smtROBPolicy=Partitioned&#10;smtROBThreshold=100&#10;socket_id=0&#10;squashWidth=8&#10;store_set_clear_period=250000&#10;switched_out=false&#10;syscallRetryLatency=10000&#10;system=system&#10;tracer=system.cpu1.tracer&#10;trapLatency=13&#10;wbWidth=8&#10;workload=system.cpu0.workload">
<path fill="#bbc6d9" stroke="#000000" d="M835,-24C835,-24 1334,-24 1334,-24 1340,-24 1346,-30 1346,-36 1346,-36 1346,-286 1346,-286 1346,-292 1340,-298 1334,-298 1334,-298 835,-298 835,-298 829,-298 823,-292 823,-286 823,-286 823,-36 823,-36 823,-30 829,-24 835,-24"/>
<text text-anchor="middle" x="1084.5" y="-282.8" font-family="Arial" font-size="14.00" fill="#000000">cpu1 </text>
<text text-anchor="middle" x="1084.5" y="-267.8" font-family="Arial" font-size="14.00" fill="#000000">: X86O3CPU</text>
</a>
</g>
</g>
<g id="clust174" class="cluster">
<title>cluster_system_cpu1_icache</title>
<g id="a_clust174"><a xlink:title="addr_ranges=0:18446744073709551615&#10;assoc=2&#10;clk_domain=system.cpu1.clk_domain&#10;clusivity=mostly_incl&#10;compressor=Null&#10;data_latency=2&#10;demand_mshr_reserve=1&#10;eventq_index=0&#10;is_read_only=false&#10;max_miss_count=0&#10;move_contractions=true&#10;mshrs=4&#10;power_model=&#10;power_state=system.cpu1.icache.power_state&#10;prefetch_on_access=false&#10;prefetch_on_pf_hit=false&#10;prefetcher=Null&#10;&#13;eplace_expansions=true&#10;&#13;eplacement_policy=system.cpu1.icache.replacement_policy&#10;&#13;esponse_latency=2&#10;sequential_access=false&#10;size=65536&#10;system=system&#10;tag_latency=2&#10;tags=system.cpu1.icache.tags&#10;tgts_per_mshr=20&#10;warmup_percentage=0&#10;write_allocator=Null&#10;write_buffers=8&#10;writeback_clean=false">
<path fill="#bab6ae" stroke="#000000" d="M1037,-32C1037,-32 1199,-32 1199,-32 1205,-32 1211,-38 1211,-44 1211,-44 1211,-110 1211,-110 1211,-116 1205,-122 1199,-122 1199,-122 1037,-122 1037,-122 1031,-122 1025,-116 1025,-110 1025,-110 1025,-44 1025,-44 1025,-38 1031,-32 1037,-32"/>
<text text-anchor="middle" x="1118" y="-106.8" font-family="Arial" font-size="14.00" fill="#000000">icache </text>
<text text-anchor="middle" x="1118" y="-91.8" font-family="Arial" font-size="14.00" fill="#000000">: Cache</text>
</a>
</g>
</g>
<g id="clust180" class="cluster">
<title>cluster_system_cpu1_dcache</title>
<g id="a_clust180"><a xlink:title="addr_ranges=0:18446744073709551615&#10;assoc=2&#10;clk_domain=system.cpu1.clk_domain&#10;clusivity=mostly_incl&#10;compressor=Null&#10;data_latency=2&#10;demand_mshr_reserve=1&#10;eventq_index=0&#10;is_read_only=false&#10;max_miss_count=0&#10;move_contractions=true&#10;mshrs=4&#10;power_model=&#10;power_state=system.cpu1.dcache.power_state&#10;prefetch_on_access=false&#10;prefetch_on_pf_hit=false&#10;prefetcher=Null&#10;&#13;eplace_expansions=true&#10;&#13;eplacement_policy=system.cpu1.dcache.replacement_policy&#10;&#13;esponse_latency=2&#10;sequential_access=false&#10;size=65536&#10;system=system&#10;tag_latency=2&#10;tags=system.cpu1.dcache.tags&#10;tgts_per_mshr=20&#10;warmup_percentage=0&#10;write_allocator=Null&#10;write_buffers=8&#10;writeback_clean=false">
<path fill="#bab6ae" stroke="#000000" d="M843,-32C843,-32 1005,-32 1005,-32 1011,-32 1017,-38 1017,-44 1017,-44 1017,-110 1017,-110 1017,-116 1011,-122 1005,-122 1005,-122 843,-122 843,-122 837,-122 831,-116 831,-110 831,-110 831,-44 831,-44 831,-38 837,-32 843,-32"/>
<text text-anchor="middle" x="924" y="-106.8" font-family="Arial" font-size="14.00" fill="#000000">dcache </text>
<text text-anchor="middle" x="924" y="-91.8" font-family="Arial" font-size="14.00" fill="#000000">: Cache</text>
</a>
</g>
</g>
<g id="clust186" class="cluster">
<title>cluster_system_cpu1_interrupts</title>
<g id="a_clust186"><a xlink:title="clk_domain=system.cpu1.interrupts.clk_domain&#10;eventq_index=0&#10;int_latency=1000&#10;pio_latency=100000&#10;system=system">
<path fill="#bab6ae" stroke="#000000" d="M1049,-162C1049,-162 1326,-162 1326,-162 1332,-162 1338,-168 1338,-174 1338,-174 1338,-240 1338,-240 1338,-246 1332,-252 1326,-252 1326,-252 1049,-252 1049,-252 1043,-252 1037,-246 1037,-240 1037,-240 1037,-174 1037,-174 1037,-168 1043,-162 1049,-162"/>
<text text-anchor="middle" x="1187.5" y="-236.8" font-family="Arial" font-size="14.00" fill="#000000">interrupts </text>
<text text-anchor="middle" x="1187.5" y="-221.8" font-family="Arial" font-size="14.00" fill="#000000">: X86LocalApic</text>
</a>
</g>
</g>
<g id="clust188" class="cluster">
<title>cluster_system_l2bus</title>
<g id="a_clust188"><a xlink:title="clk_domain=system.clk_domain&#10;eventq_index=0&#10;forward_latency=0&#10;frontend_latency=1&#10;header_latency=1&#10;max_outstanding_snoops=512&#10;max_routing_table_size=512&#10;point_of_coherency=false&#10;point_of_unification=true&#10;power_model=&#10;power_state=system.l2bus.power_state&#10;&#13;esponse_latency=1&#10;snoop_filter=system.l2bus.snoop_filter&#10;snoop_response_latency=1&#10;system=system&#10;use_default_range=false&#10;width=32">
<path fill="#6f798c" stroke="#000000" d="M567,-162C567,-162 803,-162 803,-162 809,-162 815,-168 815,-174 815,-174 815,-240 815,-240 815,-246 809,-252 803,-252 803,-252 567,-252 567,-252 561,-252 555,-246 555,-240 555,-240 555,-174 555,-174 555,-168 561,-162 567,-162"/>
<text text-anchor="middle" x="685" y="-236.8" font-family="Arial" font-size="14.00" fill="#000000">l2bus </text>
<text text-anchor="middle" x="685" y="-221.8" font-family="Arial" font-size="14.00" fill="#000000">: L2XBar</text>
</a>
</g>
</g>
<g id="clust191" class="cluster">
<title>cluster_system_l2cache</title>
<g id="a_clust191"><a xlink:title="addr_ranges=0:18446744073709551615&#10;assoc=8&#10;clk_domain=system.clk_domain&#10;clusivity=mostly_incl&#10;compressor=Null&#10;data_latency=2&#10;demand_mshr_reserve=1&#10;eventq_index=0&#10;is_read_only=false&#10;max_miss_count=0&#10;move_contractions=true&#10;mshrs=4&#10;power_model=&#10;power_state=system.l2cache.power_state&#10;prefetch_on_access=false&#10;prefetch_on_pf_hit=false&#10;prefetcher=Null&#10;&#13;eplace_expansions=true&#10;&#13;eplacement_policy=system.l2cache.replacement_policy&#10;&#13;esponse_latency=2&#10;sequential_access=false&#10;size=524288&#10;system=system&#10;tag_latency=2&#10;tags=system.l2cache.tags&#10;tgts_per_mshr=20&#10;warmup_percentage=0&#10;write_allocator=Null&#10;write_buffers=8&#10;writeback_clean=false">
<path fill="#bab6ae" stroke="#000000" d="M527,-306C527,-306 689,-306 689,-306 695,-306 701,-312 701,-318 701,-318 701,-384 701,-384 701,-390 695,-396 689,-396 689,-396 527,-396 527,-396 521,-396 515,-390 515,-384 515,-384 515,-318 515,-318 515,-312 521,-306 527,-306"/>
<text text-anchor="middle" x="608" y="-380.8" font-family="Arial" font-size="14.00" fill="#000000">l2cache </text>
<text text-anchor="middle" x="608" y="-365.8" font-family="Arial" font-size="14.00" fill="#000000">: Cache</text>
</a>
</g>
</g>
<g id="clust197" class="cluster">
<title>cluster_system_membus</title>
<g id="a_clust197"><a xlink:title="clk_domain=system.clk_domain&#10;eventq_index=0&#10;forward_latency=4&#10;frontend_latency=3&#10;header_latency=1&#10;max_outstanding_snoops=512&#10;max_routing_table_size=512&#10;point_of_coherency=true&#10;point_of_unification=true&#10;power_model=&#10;power_state=system.membus.power_state&#10;&#13;esponse_latency=2&#10;snoop_filter=system.membus.snoop_filter&#10;snoop_response_latency=4&#10;system=system&#10;use_default_range=false&#10;width=16">
<path fill="#6f798c" stroke="#000000" d="M532,-436C532,-436 768,-436 768,-436 774,-436 780,-442 780,-448 780,-448 780,-514 780,-514 780,-520 774,-526 768,-526 768,-526 532,-526 532,-526 526,-526 520,-520 520,-514 520,-514 520,-448 520,-448 520,-442 526,-436 532,-436"/>
<text text-anchor="middle" x="650" y="-510.8" font-family="Arial" font-size="14.00" fill="#000000">membus </text>
<text text-anchor="middle" x="650" y="-495.8" font-family="Arial" font-size="14.00" fill="#000000">: SystemXBar</text>
</a>
</g>
</g>
<g id="clust200" class="cluster">
<title>cluster_system_mem_ctrl</title>
<g id="a_clust200"><a xlink:title="clk_domain=system.clk_domain&#10;command_window=10000&#10;disable_sanity_check=false&#10;dram=system.mem_ctrl.dram&#10;eventq_index=0&#10;mem_sched_policy=frfcfs&#10;min_reads_per_switch=16&#10;min_writes_per_switch=16&#10;power_model=&#10;power_state=system.mem_ctrl.power_state&#10;qos_policy=Null&#10;qos_priorities=1&#10;qos_priority_escalation=false&#10;qos_q_policy=fifo&#10;qos_requestors= &#160;&#160;&#160;&#160;&#160;&#160;&#160;&#160;&#160;&#160;&#160;&#160;&#160;&#160;&#10;qos_syncro_scheduler=false&#10;qos_turnaround_policy=Null&#10;static_backend_latency=10000&#10;static_frontend_latency=10000&#10;system=system&#10;write_high_thresh_perc=85&#10;write_low_thresh_perc=50">
<path fill="#bab6ae" stroke="#000000" d="M774,-306C774,-306 827,-306 827,-306 833,-306 839,-312 839,-318 839,-318 839,-384 839,-384 839,-390 833,-396 827,-396 827,-396 774,-396 774,-396 768,-396 762,-390 762,-384 762,-384 762,-318 762,-318 762,-312 768,-306 774,-306"/>
<text text-anchor="middle" x="800.5" y="-380.8" font-family="Arial" font-size="14.00" fill="#000000">mem_ctrl </text>
<text text-anchor="middle" x="800.5" y="-365.8" font-family="Arial" font-size="14.00" fill="#000000">: MemCtrl</text>
</a>
</g>
</g>
<!-- system_system_port -->
<g id="node1" class="node">
<title>system_system_port</title>
<path fill="#b6b8bc" stroke="#000000" d="M615.5,-610C615.5,-610 548.5,-610 548.5,-610 542.5,-610 536.5,-604 536.5,-598 536.5,-598 536.5,-586 536.5,-586 536.5,-580 542.5,-574 548.5,-574 548.5,-574 615.5,-574 615.5,-574 621.5,-574 627.5,-580 627.5,-586 627.5,-586 627.5,-598 627.5,-598 627.5,-604 621.5,-610 615.5,-610"/>
<text text-anchor="middle" x="582" y="-588.3" font-family="Arial" font-size="14.00" fill="#000000">system_port</text>
</g>
<!-- system_membus_cpu_side_ports -->
<g id="node24" class="node">
<title>system_membus_cpu_side_ports</title>
<path fill="#586070" stroke="#000000" d="M624,-480C624,-480 540,-480 540,-480 534,-480 528,-474 528,-468 528,-468 528,-456 528,-456 528,-450 534,-444 540,-444 540,-444 624,-444 624,-444 630,-444 636,-450 636,-456 636,-456 636,-468 636,-468 636,-474 630,-480 624,-480"/>
<text text-anchor="middle" x="582" y="-458.3" font-family="Arial" font-size="14.00" fill="#000000">cpu_side_ports</text>
</g>
<!-- system_system_port&#45;&gt;system_membus_cpu_side_ports -->
<g id="edge1" class="edge">
<title>system_system_port&#45;&gt;system_membus_cpu_side_ports</title>
<path fill="none" stroke="black" d="M582,-573.74C582,-552.36 582,-515.69 582,-490.44"/>
<polygon fill="black" stroke="black" points="585.5,-490.4 582,-480.4 578.5,-490.4 585.5,-490.4"/>
</g>
<!-- system_cpu0_icache_port -->
<g id="node2" class="node">
<title>system_cpu0_icache_port</title>
<path fill="#959ead" stroke="#000000" d="M216,-206C216,-206 154,-206 154,-206 148,-206 142,-200 142,-194 142,-194 142,-182 142,-182 142,-176 148,-170 154,-170 154,-170 216,-170 216,-170 222,-170 228,-176 228,-182 228,-182 228,-194 228,-194 228,-200 222,-206 216,-206"/>
<text text-anchor="middle" x="185" y="-184.3" font-family="Arial" font-size="14.00" fill="#000000">icache_port</text>
</g>
<!-- system_cpu0_icache_cpu_side -->
<g id="node4" class="node">
<title>system_cpu0_icache_cpu_side</title>
<path fill="#94918b" stroke="#000000" d="M388.5,-76C388.5,-76 341.5,-76 341.5,-76 335.5,-76 329.5,-70 329.5,-64 329.5,-64 329.5,-52 329.5,-52 329.5,-46 335.5,-40 341.5,-40 341.5,-40 388.5,-40 388.5,-40 394.5,-40 400.5,-46 400.5,-52 400.5,-52 400.5,-64 400.5,-64 400.5,-70 394.5,-76 388.5,-76"/>
<text text-anchor="middle" x="365" y="-54.3" font-family="Arial" font-size="14.00" fill="#000000">cpu_side</text>
</g>
<!-- system_cpu0_icache_port&#45;&gt;system_cpu0_icache_cpu_side -->
<g id="edge2" class="edge">
<title>system_cpu0_icache_port&#45;&gt;system_cpu0_icache_cpu_side</title>
<path fill="none" stroke="black" d="M209.28,-169.74C241.03,-147.15 296.8,-107.5 332.27,-82.28"/>
<polygon fill="black" stroke="black" points="334.7,-84.84 340.82,-76.19 330.64,-79.14 334.7,-84.84"/>
</g>
<!-- system_cpu0_dcache_port -->
<g id="node3" class="node">
<title>system_cpu0_dcache_port</title>
<path fill="#959ead" stroke="#000000" d="M111.5,-206C111.5,-206 44.5,-206 44.5,-206 38.5,-206 32.5,-200 32.5,-194 32.5,-194 32.5,-182 32.5,-182 32.5,-176 38.5,-170 44.5,-170 44.5,-170 111.5,-170 111.5,-170 117.5,-170 123.5,-176 123.5,-182 123.5,-182 123.5,-194 123.5,-194 123.5,-200 117.5,-206 111.5,-206"/>
<text text-anchor="middle" x="78" y="-184.3" font-family="Arial" font-size="14.00" fill="#000000">dcache_port</text>
</g>
<!-- system_cpu0_dcache_cpu_side -->
<g id="node6" class="node">
<title>system_cpu0_dcache_cpu_side</title>
<path fill="#94918b" stroke="#000000" d="M132.5,-76C132.5,-76 85.5,-76 85.5,-76 79.5,-76 73.5,-70 73.5,-64 73.5,-64 73.5,-52 73.5,-52 73.5,-46 79.5,-40 85.5,-40 85.5,-40 132.5,-40 132.5,-40 138.5,-40 144.5,-46 144.5,-52 144.5,-52 144.5,-64 144.5,-64 144.5,-70 138.5,-76 132.5,-76"/>
<text text-anchor="middle" x="109" y="-54.3" font-family="Arial" font-size="14.00" fill="#000000">cpu_side</text>
</g>
<!-- system_cpu0_dcache_port&#45;&gt;system_cpu0_dcache_cpu_side -->
<g id="edge3" class="edge">
<title>system_cpu0_dcache_port&#45;&gt;system_cpu0_dcache_cpu_side</title>
<path fill="none" stroke="black" d="M82.18,-169.74C87.36,-148.36 96.24,-111.69 102.35,-86.44"/>
<polygon fill="black" stroke="black" points="105.83,-86.94 104.79,-76.4 99.03,-85.29 105.83,-86.94"/>
</g>
<!-- system_cpu0_icache_mem_side -->
<g id="node5" class="node">
<title>system_cpu0_icache_mem_side</title>
<path fill="#94918b" stroke="#000000" d="M487,-76C487,-76 431,-76 431,-76 425,-76 419,-70 419,-64 419,-64 419,-52 419,-52 419,-46 425,-40 431,-40 431,-40 487,-40 487,-40 493,-40 499,-46 499,-52 499,-52 499,-64 499,-64 499,-70 493,-76 487,-76"/>
<text text-anchor="middle" x="459" y="-54.3" font-family="Arial" font-size="14.00" fill="#000000">mem_side</text>
</g>
<!-- system_cpu0_dcache_mem_side -->
<g id="node7" class="node">
<title>system_cpu0_dcache_mem_side</title>
<path fill="#94918b" stroke="#000000" d="M231,-76C231,-76 175,-76 175,-76 169,-76 163,-70 163,-64 163,-64 163,-52 163,-52 163,-46 169,-40 175,-40 175,-40 231,-40 231,-40 237,-40 243,-46 243,-52 243,-52 243,-64 243,-64 243,-70 237,-76 231,-76"/>
<text text-anchor="middle" x="203" y="-54.3" font-family="Arial" font-size="14.00" fill="#000000">mem_side</text>
</g>
<!-- system_cpu0_interrupts_int_requestor -->
<g id="node8" class="node">
<title>system_cpu0_interrupts_int_requestor</title>
<path fill="#94918b" stroke="#000000" d="M329.5,-206C329.5,-206 258.5,-206 258.5,-206 252.5,-206 246.5,-200 246.5,-194 246.5,-194 246.5,-182 246.5,-182 246.5,-176 252.5,-170 258.5,-170 258.5,-170 329.5,-170 329.5,-170 335.5,-170 341.5,-176 341.5,-182 341.5,-182 341.5,-194 341.5,-194 341.5,-200 335.5,-206 329.5,-206"/>
<text text-anchor="middle" x="294" y="-184.3" font-family="Arial" font-size="14.00" fill="#000000">int_requestor</text>
</g>
<!-- system_cpu0_interrupts_int_responder -->
<g id="node9" class="node">
<title>system_cpu0_interrupts_int_responder</title>
<path fill="#94918b" stroke="#000000" d="M446.5,-206C446.5,-206 371.5,-206 371.5,-206 365.5,-206 359.5,-200 359.5,-194 359.5,-194 359.5,-182 359.5,-182 359.5,-176 365.5,-170 371.5,-170 371.5,-170 446.5,-170 446.5,-170 452.5,-170 458.5,-176 458.5,-182 458.5,-182 458.5,-194 458.5,-194 458.5,-200 452.5,-206 446.5,-206"/>
<text text-anchor="middle" x="409" y="-184.3" font-family="Arial" font-size="14.00" fill="#000000">int_responder</text>
</g>
<!-- system_cpu0_interrupts_pio -->
<g id="node10" class="node">
<title>system_cpu0_interrupts_pio</title>
<path fill="#94918b" stroke="#000000" d="M519,-206C519,-206 489,-206 489,-206 483,-206 477,-200 477,-194 477,-194 477,-182 477,-182 477,-176 483,-170 489,-170 489,-170 519,-170 519,-170 525,-170 531,-176 531,-182 531,-182 531,-194 531,-194 531,-200 525,-206 519,-206"/>
<text text-anchor="middle" x="504" y="-184.3" font-family="Arial" font-size="14.00" fill="#000000">pio</text>
</g>
<!-- system_cpu1_icache_port -->
<g id="node11" class="node">
<title>system_cpu1_icache_port</title>
<path fill="#959ead" stroke="#000000" d="M1015,-206C1015,-206 953,-206 953,-206 947,-206 941,-200 941,-194 941,-194 941,-182 941,-182 941,-176 947,-170 953,-170 953,-170 1015,-170 1015,-170 1021,-170 1027,-176 1027,-182 1027,-182 1027,-194 1027,-194 1027,-200 1021,-206 1015,-206"/>
<text text-anchor="middle" x="984" y="-184.3" font-family="Arial" font-size="14.00" fill="#000000">icache_port</text>
</g>
<!-- system_cpu1_icache_cpu_side -->
<g id="node13" class="node">
<title>system_cpu1_icache_cpu_side</title>
<path fill="#94918b" stroke="#000000" d="M1190.5,-76C1190.5,-76 1143.5,-76 1143.5,-76 1137.5,-76 1131.5,-70 1131.5,-64 1131.5,-64 1131.5,-52 1131.5,-52 1131.5,-46 1137.5,-40 1143.5,-40 1143.5,-40 1190.5,-40 1190.5,-40 1196.5,-40 1202.5,-46 1202.5,-52 1202.5,-52 1202.5,-64 1202.5,-64 1202.5,-70 1196.5,-76 1190.5,-76"/>
<text text-anchor="middle" x="1167" y="-54.3" font-family="Arial" font-size="14.00" fill="#000000">cpu_side</text>
</g>
<!-- system_cpu1_icache_port&#45;&gt;system_cpu1_icache_cpu_side -->
<g id="edge4" class="edge">
<title>system_cpu1_icache_port&#45;&gt;system_cpu1_icache_cpu_side</title>
<path fill="none" stroke="black" d="M1016.84,-169.97C1022.22,-167.26 1027.75,-164.52 1033,-162 1072.1,-143.25 1088.46,-149.49 1122,-122 1134.47,-111.79 1145.13,-97.32 1152.94,-84.83"/>
<polygon fill="black" stroke="black" points="1155.99,-86.55 1158.11,-76.17 1149.98,-82.96 1155.99,-86.55"/>
</g>
<!-- system_cpu1_dcache_port -->
<g id="node12" class="node">
<title>system_cpu1_dcache_port</title>
<path fill="#959ead" stroke="#000000" d="M910.5,-206C910.5,-206 843.5,-206 843.5,-206 837.5,-206 831.5,-200 831.5,-194 831.5,-194 831.5,-182 831.5,-182 831.5,-176 837.5,-170 843.5,-170 843.5,-170 910.5,-170 910.5,-170 916.5,-170 922.5,-176 922.5,-182 922.5,-182 922.5,-194 922.5,-194 922.5,-200 916.5,-206 910.5,-206"/>
<text text-anchor="middle" x="877" y="-184.3" font-family="Arial" font-size="14.00" fill="#000000">dcache_port</text>
</g>
<!-- system_cpu1_dcache_cpu_side -->
<g id="node15" class="node">
<title>system_cpu1_dcache_cpu_side</title>
<path fill="#94918b" stroke="#000000" d="M996.5,-76C996.5,-76 949.5,-76 949.5,-76 943.5,-76 937.5,-70 937.5,-64 937.5,-64 937.5,-52 937.5,-52 937.5,-46 943.5,-40 949.5,-40 949.5,-40 996.5,-40 996.5,-40 1002.5,-40 1008.5,-46 1008.5,-52 1008.5,-52 1008.5,-64 1008.5,-64 1008.5,-70 1002.5,-76 996.5,-76"/>
<text text-anchor="middle" x="973" y="-54.3" font-family="Arial" font-size="14.00" fill="#000000">cpu_side</text>
</g>
<!-- system_cpu1_dcache_port&#45;&gt;system_cpu1_dcache_cpu_side -->
<g id="edge5" class="edge">
<title>system_cpu1_dcache_port&#45;&gt;system_cpu1_dcache_cpu_side</title>
<path fill="none" stroke="black" d="M890.85,-169.78C901.23,-156.78 915.71,-138.42 928,-122 937.12,-109.83 946.97,-96.11 955.12,-84.58"/>
<polygon fill="black" stroke="black" points="958.08,-86.45 960.98,-76.26 952.36,-82.42 958.08,-86.45"/>
</g>
<!-- system_cpu1_icache_mem_side -->
<g id="node14" class="node">
<title>system_cpu1_icache_mem_side</title>
<path fill="#94918b" stroke="#000000" d="M1101,-76C1101,-76 1045,-76 1045,-76 1039,-76 1033,-70 1033,-64 1033,-64 1033,-52 1033,-52 1033,-46 1039,-40 1045,-40 1045,-40 1101,-40 1101,-40 1107,-40 1113,-46 1113,-52 1113,-52 1113,-64 1113,-64 1113,-70 1107,-76 1101,-76"/>
<text text-anchor="middle" x="1073" y="-54.3" font-family="Arial" font-size="14.00" fill="#000000">mem_side</text>
</g>
<!-- system_cpu1_dcache_mem_side -->
<g id="node16" class="node">
<title>system_cpu1_dcache_mem_side</title>
<path fill="#94918b" stroke="#000000" d="M907,-76C907,-76 851,-76 851,-76 845,-76 839,-70 839,-64 839,-64 839,-52 839,-52 839,-46 845,-40 851,-40 851,-40 907,-40 907,-40 913,-40 919,-46 919,-52 919,-52 919,-64 919,-64 919,-70 913,-76 907,-76"/>
<text text-anchor="middle" x="879" y="-54.3" font-family="Arial" font-size="14.00" fill="#000000">mem_side</text>
</g>
<!-- system_cpu1_interrupts_int_requestor -->
<g id="node17" class="node">
<title>system_cpu1_interrupts_int_requestor</title>
<path fill="#94918b" stroke="#000000" d="M1128.5,-206C1128.5,-206 1057.5,-206 1057.5,-206 1051.5,-206 1045.5,-200 1045.5,-194 1045.5,-194 1045.5,-182 1045.5,-182 1045.5,-176 1051.5,-170 1057.5,-170 1057.5,-170 1128.5,-170 1128.5,-170 1134.5,-170 1140.5,-176 1140.5,-182 1140.5,-182 1140.5,-194 1140.5,-194 1140.5,-200 1134.5,-206 1128.5,-206"/>
<text text-anchor="middle" x="1093" y="-184.3" font-family="Arial" font-size="14.00" fill="#000000">int_requestor</text>
</g>
<!-- system_cpu1_interrupts_int_responder -->
<g id="node18" class="node">
<title>system_cpu1_interrupts_int_responder</title>
<path fill="#94918b" stroke="#000000" d="M1245.5,-206C1245.5,-206 1170.5,-206 1170.5,-206 1164.5,-206 1158.5,-200 1158.5,-194 1158.5,-194 1158.5,-182 1158.5,-182 1158.5,-176 1164.5,-170 1170.5,-170 1170.5,-170 1245.5,-170 1245.5,-170 1251.5,-170 1257.5,-176 1257.5,-182 1257.5,-182 1257.5,-194 1257.5,-194 1257.5,-200 1251.5,-206 1245.5,-206"/>
<text text-anchor="middle" x="1208" y="-184.3" font-family="Arial" font-size="14.00" fill="#000000">int_responder</text>
</g>
<!-- system_cpu1_interrupts_pio -->
<g id="node19" class="node">
<title>system_cpu1_interrupts_pio</title>
<path fill="#94918b" stroke="#000000" d="M1318,-206C1318,-206 1288,-206 1288,-206 1282,-206 1276,-200 1276,-194 1276,-194 1276,-182 1276,-182 1276,-176 1282,-170 1288,-170 1288,-170 1318,-170 1318,-170 1324,-170 1330,-176 1330,-182 1330,-182 1330,-194 1330,-194 1330,-200 1324,-206 1318,-206"/>
<text text-anchor="middle" x="1303" y="-184.3" font-family="Arial" font-size="14.00" fill="#000000">pio</text>
</g>
<!-- system_l2bus_cpu_side_ports -->
<g id="node20" class="node">
<title>system_l2bus_cpu_side_ports</title>
<path fill="#586070" stroke="#000000" d="M795,-206C795,-206 711,-206 711,-206 705,-206 699,-200 699,-194 699,-194 699,-182 699,-182 699,-176 705,-170 711,-170 711,-170 795,-170 795,-170 801,-170 807,-176 807,-182 807,-182 807,-194 807,-194 807,-200 801,-206 795,-206"/>
<text text-anchor="middle" x="753" y="-184.3" font-family="Arial" font-size="14.00" fill="#000000">cpu_side_ports</text>
</g>
<!-- system_l2bus_cpu_side_ports&#45;&gt;system_cpu0_icache_mem_side -->
<g id="edge6" class="edge">
<title>system_l2bus_cpu_side_ports&#45;&gt;system_cpu0_icache_mem_side</title>
<path fill="none" stroke="black" d="M704.37,-165.83C646.59,-140.67 551.35,-99.21 498.11,-76.03"/>
<polygon fill="black" stroke="black" points="703.09,-169.09 713.65,-169.87 705.88,-162.67 703.09,-169.09"/>
</g>
<!-- system_l2bus_cpu_side_ports&#45;&gt;system_cpu0_dcache_mem_side -->
<g id="edge7" class="edge">
<title>system_l2bus_cpu_side_ports&#45;&gt;system_cpu0_dcache_mem_side</title>
<path fill="none" stroke="black" d="M705.24,-166.5C700.16,-164.79 695.01,-163.24 690,-162 528.14,-122 475.99,-172.2 317,-122 283.79,-111.51 249.28,-90.85 227.06,-76.04"/>
<polygon fill="black" stroke="black" points="704.3,-169.88 714.89,-169.97 706.67,-163.3 704.3,-169.88"/>
</g>
<!-- system_l2bus_cpu_side_ports&#45;&gt;system_cpu1_icache_mem_side -->
<g id="edge8" class="edge">
<title>system_l2bus_cpu_side_ports&#45;&gt;system_cpu1_icache_mem_side</title>
<path fill="none" stroke="black" d="M804.69,-166.49C809.49,-164.87 814.31,-163.34 819,-162 906.99,-136.81 942.41,-168.91 1021,-122 1039.51,-110.95 1054.37,-90.81 1063.39,-76.27"/>
<polygon fill="black" stroke="black" points="803.17,-163.32 794.9,-169.94 805.49,-169.92 803.17,-163.32"/>
</g>
<!-- system_l2bus_cpu_side_ports&#45;&gt;system_cpu1_dcache_mem_side -->
<g id="edge9" class="edge">
<title>system_l2bus_cpu_side_ports&#45;&gt;system_cpu1_dcache_mem_side</title>
<path fill="none" stroke="black" d="M777.24,-162.37C802.06,-137.16 840.01,-98.6 861.87,-76.4"/>
<polygon fill="black" stroke="black" points="774.51,-160.16 769.99,-169.74 779.5,-165.07 774.51,-160.16"/>
</g>
<!-- system_l2bus_mem_side_ports -->
<g id="node21" class="node">
<title>system_l2bus_mem_side_ports</title>
<path fill="#586070" stroke="#000000" d="M669,-206C669,-206 575,-206 575,-206 569,-206 563,-200 563,-194 563,-194 563,-182 563,-182 563,-176 569,-170 575,-170 575,-170 669,-170 669,-170 675,-170 681,-176 681,-182 681,-182 681,-194 681,-194 681,-200 675,-206 669,-206"/>
<text text-anchor="middle" x="622" y="-184.3" font-family="Arial" font-size="14.00" fill="#000000">mem_side_ports</text>
</g>
<!-- system_l2cache_cpu_side -->
<g id="node22" class="node">
<title>system_l2cache_cpu_side</title>
<path fill="#94918b" stroke="#000000" d="M680.5,-350C680.5,-350 633.5,-350 633.5,-350 627.5,-350 621.5,-344 621.5,-338 621.5,-338 621.5,-326 621.5,-326 621.5,-320 627.5,-314 633.5,-314 633.5,-314 680.5,-314 680.5,-314 686.5,-314 692.5,-320 692.5,-326 692.5,-326 692.5,-338 692.5,-338 692.5,-344 686.5,-350 680.5,-350"/>
<text text-anchor="middle" x="657" y="-328.3" font-family="Arial" font-size="14.00" fill="#000000">cpu_side</text>
</g>
<!-- system_l2cache_cpu_side&#45;&gt;system_l2bus_mem_side_ports -->
<g id="edge10" class="edge">
<title>system_l2cache_cpu_side&#45;&gt;system_l2bus_mem_side_ports</title>
<path fill="none" stroke="black" d="M650.36,-304.06C643.27,-275.28 632.24,-230.53 626.24,-206.19"/>
<polygon fill="black" stroke="black" points="646.99,-305 652.78,-313.87 653.78,-303.32 646.99,-305"/>
</g>
<!-- system_l2cache_mem_side -->
<g id="node23" class="node">
<title>system_l2cache_mem_side</title>
<path fill="#94918b" stroke="#000000" d="M591,-350C591,-350 535,-350 535,-350 529,-350 523,-344 523,-338 523,-338 523,-326 523,-326 523,-320 529,-314 535,-314 535,-314 591,-314 591,-314 597,-314 603,-320 603,-326 603,-326 603,-338 603,-338 603,-344 597,-350 591,-350"/>
<text text-anchor="middle" x="563" y="-328.3" font-family="Arial" font-size="14.00" fill="#000000">mem_side</text>
</g>
<!-- system_membus_cpu_side_ports&#45;&gt;system_cpu0_interrupts_int_requestor -->
<g id="edge12" class="edge">
<title>system_membus_cpu_side_ports&#45;&gt;system_cpu0_interrupts_int_requestor</title>
<path fill="none" stroke="black" d="M523.98,-440.02C497.65,-429.05 466.9,-414.1 442,-396 393.92,-361.05 385.3,-346.54 351,-298 329.56,-267.65 310.93,-228.2 301.2,-206.05"/>
<polygon fill="black" stroke="black" points="522.88,-443.36 533.47,-443.89 525.53,-436.87 522.88,-443.36"/>
</g>
<!-- system_membus_cpu_side_ports&#45;&gt;system_cpu1_interrupts_int_requestor -->
<g id="edge13" class="edge">
<title>system_membus_cpu_side_ports&#45;&gt;system_cpu1_interrupts_int_requestor</title>
<path fill="none" stroke="black" d="M633.18,-439.69C662.71,-426.35 695.78,-409.23 705,-396 728.07,-362.89 686.97,-332.95 717,-306 730.44,-293.94 1026.88,-307.88 1042,-298 1073.65,-277.31 1086.04,-231.39 1090.58,-206.26"/>
<polygon fill="black" stroke="black" points="631.46,-436.62 623.75,-443.88 634.31,-443.02 631.46,-436.62"/>
</g>
<!-- system_membus_cpu_side_ports&#45;&gt;system_l2cache_mem_side -->
<g id="edge11" class="edge">
<title>system_membus_cpu_side_ports&#45;&gt;system_l2cache_mem_side</title>
<path fill="none" stroke="black" d="M577.95,-433.72C574.21,-408.52 568.77,-371.84 565.58,-350.4"/>
<polygon fill="black" stroke="black" points="574.51,-434.36 579.44,-443.74 581.43,-433.33 574.51,-434.36"/>
</g>
<!-- system_membus_mem_side_ports -->
<g id="node25" class="node">
<title>system_membus_mem_side_ports</title>
<path fill="#586070" stroke="#000000" d="M760,-480C760,-480 666,-480 666,-480 660,-480 654,-474 654,-468 654,-468 654,-456 654,-456 654,-450 660,-444 666,-444 666,-444 760,-444 760,-444 766,-444 772,-450 772,-456 772,-456 772,-468 772,-468 772,-474 766,-480 760,-480"/>
<text text-anchor="middle" x="713" y="-458.3" font-family="Arial" font-size="14.00" fill="#000000">mem_side_ports</text>
</g>
<!-- system_membus_mem_side_ports&#45;&gt;system_cpu0_interrupts_int_responder -->
<g id="edge16" class="edge">
<title>system_membus_mem_side_ports&#45;&gt;system_cpu0_interrupts_int_responder</title>
<path fill="none" stroke="black" d="M668.99,-443.99C661.06,-441.16 652.82,-438.38 645,-436 572.8,-414.06 535.77,-446.83 480,-396 427.73,-348.36 413.94,-260.55 410.3,-216.18"/>
<polygon fill="black" stroke="black" points="413.79,-215.87 409.59,-206.14 406.8,-216.36 413.79,-215.87"/>
</g>
<!-- system_membus_mem_side_ports&#45;&gt;system_cpu0_interrupts_pio -->
<g id="edge15" class="edge">
<title>system_membus_mem_side_ports&#45;&gt;system_cpu0_interrupts_pio</title>
<path fill="none" stroke="black" d="M667.78,-443.93C660.2,-441.2 652.4,-438.46 645,-436 586.03,-416.38 548.97,-445.2 511,-396 470.41,-343.4 484.76,-258.9 495.9,-215.95"/>
<polygon fill="black" stroke="black" points="499.3,-216.78 498.55,-206.21 492.54,-214.94 499.3,-216.78"/>
</g>
<!-- system_membus_mem_side_ports&#45;&gt;system_cpu1_interrupts_int_responder -->
<g id="edge18" class="edge">
<title>system_membus_mem_side_ports&#45;&gt;system_cpu1_interrupts_int_responder</title>
<path fill="none" stroke="black" d="M714.15,-443.96C717.02,-407.41 725.81,-323.39 747,-306 764.31,-291.79 1130.92,-309.72 1150,-298 1179.06,-280.15 1194.4,-242.4 1201.85,-216.36"/>
<polygon fill="black" stroke="black" points="1205.32,-216.92 1204.5,-206.36 1198.56,-215.13 1205.32,-216.92"/>
</g>
<!-- system_membus_mem_side_ports&#45;&gt;system_cpu1_interrupts_pio -->
<g id="edge17" class="edge">
<title>system_membus_mem_side_ports&#45;&gt;system_cpu1_interrupts_pio</title>
<path fill="none" stroke="black" d="M720.39,-443.86C725.79,-430.9 733.01,-412.55 738,-396 749.83,-356.77 726.24,-331.89 758,-306 779.92,-288.13 1244.21,-314.75 1267,-298 1292.43,-279.31 1300.18,-242.03 1302.38,-216.31"/>
<polygon fill="black" stroke="black" points="1305.89,-216.28 1303.03,-206.08 1298.91,-215.85 1305.89,-216.28"/>
</g>
<!-- system_mem_ctrl_port -->
<g id="node26" class="node">
<title>system_mem_ctrl_port</title>
<path fill="#94918b" stroke="#000000" d="M813,-350C813,-350 783,-350 783,-350 777,-350 771,-344 771,-338 771,-338 771,-326 771,-326 771,-320 777,-314 783,-314 783,-314 813,-314 813,-314 819,-314 825,-320 825,-326 825,-326 825,-338 825,-338 825,-344 819,-350 813,-350"/>
<text text-anchor="middle" x="798" y="-328.3" font-family="Arial" font-size="14.00" fill="#000000">port</text>
</g>
<!-- system_membus_mem_side_ports&#45;&gt;system_mem_ctrl_port -->
<g id="edge14" class="edge">
<title>system_membus_mem_side_ports&#45;&gt;system_mem_ctrl_port</title>
<path fill="none" stroke="black" d="M724.66,-443.95C733.58,-430.87 746.15,-412.35 757,-396 765.09,-383.82 773.95,-370.23 781.36,-358.8"/>
<polygon fill="black" stroke="black" points="784.45,-360.46 786.95,-350.17 778.57,-356.66 784.45,-360.46"/>
</g>
</g>
</svg>
